<svg xmlns="http://www.w3.org/2000/svg" width="24" height="24" fill="none" viewBox="0 0 24 24"><path fill="#82829C" d="M4.164 9.155a.594.594 0 0 1 .8 0l7.028 6.583 7.043-6.583a.594.594 0 0 1 .8 0c.22.206.22.54 0 .747l-7.43 6.943a.596.596 0 0 1-.8 0L4.178 9.902a.495.495 0 0 1-.013-.747"/><path stroke="#82829C" stroke-miterlimit="10" stroke-width="0.5" d="M4.164 9.155a.594.594 0 0 1 .8 0l7.028 6.583 7.043-6.583a.594.594 0 0 1 .8 0c.22.206.22.54 0 .747l-7.43 6.943a.596.596 0 0 1-.8 0L4.178 9.902a.495.495 0 0 1-.013-.747Z" style="mix-blend-mode:color"/></svg>