<svg xmlns="http://www.w3.org/2000/svg" width="24" height="24" fill="none" viewBox="0 0 24 24"><path fill="url(#a)" fill-rule="evenodd" d="M24 12c0 6.627-5.373 12-12 12S0 18.627 0 12 5.373 0 12 0s12 5.373 12 12M13.015 8.303h.347v.274a.5.5 0 0 1-.129.354.45.45 0 0 1-.347.132q-.414 0-.413-.366 0-.17.14-.28.14-.114.402-.114M11.985 6.8v.634q.381-.257.834-.257.297 0 .42.126t.123.366v.177h-.414q-.57 0-.873.234a.77.77 0 0 0-.302.646.83.83 0 0 0 .235.605q.24.24.643.24.543 0 .739-.371v.349h.665V7.697q0-1.097-1.152-1.097-.599 0-.917.2m-4.114.309V6.65h-.67v2.9h.67V7.994q0-.417.174-.611a.52.52 0 0 1 .391-.194q.435 0 .436.582V9.55h.677V7.994q0-.417.168-.611a.52.52 0 0 1 .391-.194q.435 0 .436.582V9.55h.677V7.64q0-.492-.235-.754-.234-.27-.665-.269-.285 0-.51.143a.87.87 0 0 0-.335.406q-.184-.549-.805-.549-.56 0-.8.492m7.413 1q.012.411.241.662.235.252.632.252.346 0 .643-.194v.594q-.297.177-.738.177-.654 0-1.063-.423-.402-.423-.402-1.068.005-.635.402-1.069.403-.434 1.096-.434.414 0 .705.16v.605a1.14 1.14 0 0 0-.637-.182.83.83 0 0 0-.632.251q-.24.251-.247.669M7.903 12.22q-.703.823-.703 2.18 0 1.349.71 2.17.71.82 1.893.821 1.183 0 1.884-.821.71-.821.71-2.17 0-1.365-.702-2.179-.7-.82-1.9-.821-1.184 0-1.893.821m.807 3.631q-.408-.535-.407-1.452 0-.925.4-1.461.399-.536 1.093-.536.701 0 1.101.536.4.535.4 1.461t-.4 1.461q-.4.528-1.093.527-.686 0-1.094-.536m7.83-3.052v-1.054q-.562-.285-1.338-.286-.856 0-1.379.45-.514.45-.514 1.193 0 .354.106.631.114.277.335.476.22.198.408.32.187.112.49.259.04.017.122.06.293.14.383.19.097.053.27.174.179.12.236.242.057.12.057.276a.67.67 0 0 1-.229.528q-.228.19-.603.19a2.47 2.47 0 0 1-1.534-.536v1.115q.612.372 1.542.372.856 0 1.379-.458.53-.467.53-1.245 0-.372-.122-.657a1.24 1.24 0 0 0-.36-.502 2.6 2.6 0 0 0-.44-.32 7 7 0 0 0-.53-.276 4 4 0 0 1-.702-.407.6.6 0 0 1-.228-.475q0-.285.212-.467.22-.181.604-.181.693 0 1.305.388" clip-rule="evenodd"/><defs><linearGradient id="a" x1="12" x2="12" y1="0" y2="24" gradientUnits="userSpaceOnUse"><stop stop-color="#57D5FD"/><stop offset="1" stop-color="#2F82FF"/></linearGradient></defs></svg>