<svg xmlns="http://www.w3.org/2000/svg" width="32" height="32" fill="none"><path fill="#fff" d="M26.333 8c0-.265-.14-.52-.39-.707A1.6 1.6 0 0 0 25 7H6.333c-.353 0-.692.105-.942.293C5.14 7.48 5 7.735 5 8s.14.52.39.707c.25.188.59.293.943.293H25c.354 0 .693-.105.943-.293.25-.187.39-.442.39-.707m0 16c0-.265-.14-.52-.39-.707A1.6 1.6 0 0 0 25 23H6.333c-.353 0-.692.105-.942.293C5.14 23.48 5 23.735 5 24s.14.52.39.707c.25.188.59.293.943.293H25c.354 0 .693-.105.943-.293.25-.187.39-.442.39-.707M17 15c.354 0 .693.105.943.293.25.187.39.442.39.707s-.14.52-.39.707c-.25.188-.59.293-.943.293H6.333c-.353 0-.692-.105-.942-.293C5.14 16.52 5 16.265 5 16s.14-.52.39-.707c.25-.188.59-.293.943-.293z"/></svg>