<svg xmlns="http://www.w3.org/2000/svg" width="24" height="24" fill="none" viewBox="0 0 24 24"><rect width="12" height="19" x="6" y="1.5" fill="url(#a)" rx="1"/><path fill="url(#b)" fill-rule="evenodd" d="M7.384 1h9.456a1.68 1.68 0 0 1 1.675 1.675v18.65A1.68 1.68 0 0 1 16.84 23H7.384a1.68 1.68 0 0 1-1.675-1.675V2.675A1.68 1.68 0 0 1 7.384 1m4.727 19.452a.674.674 0 1 1 0 1.349.674.674 0 0 1 0-1.349M7.384 1.8h9.456c.482 0 .874.393.874.874V19.25H6.51V2.674c0-.482.393-.874.874-.874" clip-rule="evenodd"/><path fill="#fff" d="M9.955 3.56a.417.417 0 0 1 0-.832h3.009a.417.417 0 0 1 0 .833zm4.31 0a.417.417 0 1 1-.002-.833.417.417 0 1 1 .002.833"/><defs><linearGradient id="a" x1="12" x2="12" y1="1.5" y2="20.5" gradientUnits="userSpaceOnUse"><stop stop-color="#57D5FD"/><stop offset="1" stop-color="#2F82FF"/></linearGradient><linearGradient id="b" x1="12.1121" x2="12.1121" y1="1" y2="23" gradientUnits="userSpaceOnUse"><stop stop-color="#57D5FD"/><stop offset="1" stop-color="#2F82FF"/></linearGradient></defs></svg>