<svg xmlns="http://www.w3.org/2000/svg" width="22" height="22" fill="none" viewBox="0 0 22 22"><path fill="url(#a)" d="M17 20v-1.5h1.5V20z"/><path fill="url(#b)" d="M12.5 17v-1.5H14V17z"/><path fill="url(#c)" d="M12.5 21.5h3V20H14v-1.5h-1.5z"/><path fill="url(#d)" d="M18.5 18.5v-3H20v3z"/><path fill="url(#e)" d="M20 18.5h1.5v3h-3V20H20z"/><path fill="url(#f)" d="M18.5 14v-1.5h3v3H20V14z"/><path fill="url(#g)" d="M17 14h-1.5v3H14v1.5h3z"/><path fill="url(#h)" d="M12.5 14v-1.5h3V14z"/><path fill="url(#i)" d="M3.5 15.5h3v3h-3z"/><path fill="url(#j)" d="M9.5 21.5h-9v-9h9zM2 20h6v-6H2z"/><path fill="url(#k)" d="M15.5 3.5h3v3h-3z"/><path fill="url(#l)" d="M21.5 9.5h-9v-9h9zM14 8h6V2h-6z"/><path fill="url(#m)" d="M3.5 3.5h3v3h-3z"/><path fill="url(#n)" d="M9.5 9.5h-9v-9h9zM2 8h6V2H2z"/><defs><linearGradient id="a" x1="17.75" x2="17.75" y1="18.5" y2="20" gradientUnits="userSpaceOnUse"><stop stop-color="#57D5FD"/><stop offset="1" stop-color="#2F82FF"/></linearGradient><linearGradient id="b" x1="13.25" x2="13.25" y1="15.5" y2="17" gradientUnits="userSpaceOnUse"><stop stop-color="#57D5FD"/><stop offset="1" stop-color="#2F82FF"/></linearGradient><linearGradient id="c" x1="14" x2="14" y1="18.5" y2="21.5" gradientUnits="userSpaceOnUse"><stop stop-color="#57D5FD"/><stop offset="1" stop-color="#2F82FF"/></linearGradient><linearGradient id="d" x1="19.25" x2="19.25" y1="15.5" y2="18.5" gradientUnits="userSpaceOnUse"><stop stop-color="#57D5FD"/><stop offset="1" stop-color="#2F82FF"/></linearGradient><linearGradient id="e" x1="20" x2="20" y1="18.5" y2="21.5" gradientUnits="userSpaceOnUse"><stop stop-color="#57D5FD"/><stop offset="1" stop-color="#2F82FF"/></linearGradient><linearGradient id="f" x1="20" x2="20" y1="12.5" y2="15.5" gradientUnits="userSpaceOnUse"><stop stop-color="#57D5FD"/><stop offset="1" stop-color="#2F82FF"/></linearGradient><linearGradient id="g" x1="15.5" x2="15.5" y1="14" y2="18.5" gradientUnits="userSpaceOnUse"><stop stop-color="#57D5FD"/><stop offset="1" stop-color="#2F82FF"/></linearGradient><linearGradient id="h" x1="14" x2="14" y1="12.5" y2="14" gradientUnits="userSpaceOnUse"><stop stop-color="#57D5FD"/><stop offset="1" stop-color="#2F82FF"/></linearGradient><linearGradient id="i" x1="5" x2="5" y1="15.5" y2="18.5" gradientUnits="userSpaceOnUse"><stop stop-color="#57D5FD"/><stop offset="1" stop-color="#2F82FF"/></linearGradient><linearGradient id="j" x1="5" x2="5" y1="12.5" y2="21.5" gradientUnits="userSpaceOnUse"><stop stop-color="#57D5FD"/><stop offset="1" stop-color="#2F82FF"/></linearGradient><linearGradient id="k" x1="17" x2="17" y1="3.5" y2="6.5" gradientUnits="userSpaceOnUse"><stop stop-color="#57D5FD"/><stop offset="1" stop-color="#2F82FF"/></linearGradient><linearGradient id="l" x1="17" x2="17" y1="0.5" y2="9.5" gradientUnits="userSpaceOnUse"><stop stop-color="#57D5FD"/><stop offset="1" stop-color="#2F82FF"/></linearGradient><linearGradient id="m" x1="5" x2="5" y1="3.5" y2="6.5" gradientUnits="userSpaceOnUse"><stop stop-color="#57D5FD"/><stop offset="1" stop-color="#2F82FF"/></linearGradient><linearGradient id="n" x1="5" x2="5" y1="0.5" y2="9.5" gradientUnits="userSpaceOnUse"><stop stop-color="#57D5FD"/><stop offset="1" stop-color="#2F82FF"/></linearGradient></defs></svg>